<?xml version="1.0" standalone="no"?>
<!DOCTYPE svg PUBLIC "-//W3C//DTD SVG 20010904//EN"
 "http://www.w3.org/TR/2001/REC-SVG-20010904/DTD/svg10.dtd">
<svg version="1.0" xmlns="http://www.w3.org/2000/svg"
 width="256 .000000pt" height="256.000000pt" viewBox="0 0 512.000000 512.000000"
 preserveAspectRatio="xMidYMid meet">

<g transform="translate(0.000000,512.000000) scale(0.100000,-0.100000)"
fill="#00335e" stroke="none">
<path d="M2525 5034 c-17 -8 -580 -564 -1251 -1237 -1368 -1370 -1268 -1258
-1268 -1412 0 -65 4 -90 25 -135 80 -170 284 -243 451 -160 30 15 347 326
1061 1038 l1017 1017 1018 -1017 c713 -712 1030 -1023 1060 -1038 167 -83 371
-10 451 160 21 45 25 70 25 135 0 154 99 43 -1258 1403 -666 667 -1222 1221
-1236 1231 -38 28 -62 32 -95 15z"/>
<path d="M1562 2887 l-992 -992 0 -882 0 -882 24 -28 24 -28 1942 0 1942 0 24
28 24 28 0 882 0 882 -993 993 c-545 545 -994 992 -997 992 -3 0 -452 -447
-998 -993z m1152 -263 c130 -33 264 -127 329 -231 55 -87 67 -147 67 -333 l0
-170 40 0 c57 0 106 -23 130 -62 20 -32 20 -45 18 -590 l-3 -558 -33 -32 -32
-33 -658 -3 -658 -2 -35 23 c-18 12 -39 34 -46 47 -10 19 -13 154 -13 570 0
529 1 546 20 578 24 38 73 62 129 62 l39 0 4 188 3 188 39 78 c66 134 188 233
341 277 79 23 236 24 319 3z"/>
<path d="M2474 2379 c-69 -16 -145 -69 -179 -123 -30 -49 -30 -51 -33 -208
l-4 -158 301 0 301 0 0 143 c-1 203 -27 259 -143 317 -71 34 -171 47 -243 29z"/>
<path d="M2495 1526 c-61 -27 -105 -94 -105 -158 0 -42 36 -115 66 -135 23
-15 24 -19 24 -159 0 -157 7 -186 51 -205 37 -15 82 2 98 37 6 15 11 83 11
168 0 143 0 144 26 161 31 20 63 88 64 133 1 118 -129 205 -235 158z"/>
</g>
</svg>
