<?xml version="1.0" standalone="no"?>
<!DOCTYPE svg PUBLIC "-//W3C//DTD SVG 20010904//EN"
 "http://www.w3.org/TR/2001/REC-SVG-20010904/DTD/svg10.dtd">
<svg version="1.0" xmlns="http://www.w3.org/2000/svg"
 width="287.000000pt" height="194.000000pt" viewBox="0 0 287.000000 194.000000"
 preserveAspectRatio="xMidYMid meet">

<g transform="translate(0.000000,194.000000) scale(0.100000,-0.100000)"
fill="#00335e" stroke="none">
<path d="M1910 1745 c0 -14 3 -25 8 -26 96 -9 154 -49 173 -123 18 -73 20 -76
39 -76 13 0 21 9 25 25 3 14 7 36 10 50 9 44 70 101 122 115 62 17 77 28 62
46 -29 36 -138 2 -191 -58 l-27 -32 -35 36 c-43 44 -93 68 -145 68 -37 0 -41
-2 -41 -25z"/>
<path d="M1741 1616 c-17 -20 -7 -34 40 -53 30 -12 41 -22 46 -44 7 -39 28
-55 48 -39 8 7 15 21 15 30 0 20 44 60 65 60 7 0 18 7 25 16 11 12 11 18 -2
30 -13 13 -22 14 -56 5 -22 -6 -42 -17 -45 -24 -3 -9 -11 -8 -33 4 -46 26 -89
32 -103 15z"/>
<path d="M1248 1589 c-13 -7 -18 -23 -18 -54 l0 -44 -47 -3 -48 -3 -5 -50 c-5
-48 -6 -50 -35 -49 -36 1 -287 22 -366 30 l-57 6 -123 -104 c-68 -56 -133
-110 -144 -119 -36 -30 -119 -101 -148 -126 -16 -13 -27 -32 -25 -41 4 -22 39
-28 263 -47 99 -8 225 -19 280 -24 115 -11 105 -15 219 84 41 36 79 65 84 65
6 0 45 -42 87 -92 l77 -93 56 -7 c83 -11 402 -39 509 -45 112 -7 125 5 72 65
-19 21 -43 49 -54 63 -93 113 -281 335 -290 341 -5 4 -38 8 -72 8 l-63 0 0
115 c0 99 -2 115 -17 123 -26 13 -115 14 -135 1z m90 -137 l3 -83 -73 3 c-71
3 -73 4 -76 30 -3 26 -1 27 45 30 l48 3 3 40 c4 55 9 67 29 63 15 -3 18 -16
21 -86z m-418 -112 c155 -11 320 -26 470 -41 108 -11 117 -13 143 -42 15 -16
27 -33 27 -36 0 -6 -152 4 -480 34 -96 8 -233 20 -305 26 -71 6 -136 12 -143
14 -8 3 -1 15 20 35 31 28 37 30 88 25 30 -3 111 -10 180 -15z m-110 -121 c74
-6 166 -14 204 -17 l68 -7 -40 -32 -39 -32 -104 9 c-57 5 -174 15 -259 21 -85
7 -157 14 -160 16 -2 2 11 17 30 34 33 29 38 30 100 25 36 -3 126 -11 200 -17z
m620 -53 c96 -8 182 -17 191 -21 16 -6 64 -64 57 -69 -1 -2 -43 0 -93 4 -49 5
-166 14 -258 21 l-168 13 -32 39 -31 40 80 -6 c43 -3 158 -12 254 -21z m-808
-61 c106 -9 220 -19 253 -23 l59 -7 -33 -31 c-37 -35 -53 -36 -231 -14 -41 5
-127 12 -190 16 -152 8 -154 8 -105 49 21 18 42 32 46 29 4 -2 94 -11 201 -19z
m863 -75 c39 -5 111 -12 161 -15 88 -7 94 -9 125 -41 18 -18 30 -37 26 -40 -4
-4 -46 -2 -94 4 -49 6 -135 14 -193 18 -184 10 -231 20 -262 56 -16 17 -28 33
-28 35 0 6 173 -5 265 -17z"/>
<path d="M2283 1153 c-3 -9 -1 -76 6 -150 7 -74 10 -137 7 -141 -4 -3 -22 10
-41 28 -33 32 -35 38 -35 101 0 47 -4 70 -15 79 -23 19 -45 -5 -45 -48 l0 -36
-53 52 c-56 56 -68 60 -87 37 -11 -13 9 -38 135 -165 l149 -150 -3 -47 c-1
-26 -3 -49 -5 -50 -1 -1 -57 52 -123 118 -109 109 -123 120 -142 110 -27 -15
-26 -23 4 -60 l26 -30 -68 -3 c-65 -3 -68 -4 -68 -28 0 -25 1 -25 100 -28
l100 -3 88 -87 c78 -78 87 -90 87 -124 0 -20 -5 -40 -11 -44 -6 -4 -57 39
-118 100 -58 58 -114 106 -124 106 -35 0 -30 -30 13 -76 l42 -46 -31 -30 c-34
-33 -35 -45 -8 -62 13 -8 23 -4 50 22 l33 32 72 -73 71 -72 -6 -87 -6 -88
-122 0 c-97 0 -125 -3 -135 -15 -10 -12 -10 -18 0 -30 10 -12 48 -15 221 -15
199 0 208 1 214 20 10 32 -3 40 -61 40 l-54 0 0 64 0 63 67 67 67 66 88 0 c70
0 90 3 94 15 11 26 -15 44 -69 47 l-52 3 33 29 c35 32 43 72 16 83 -11 4 -49
-27 -126 -103 l-110 -109 4 58 5 58 94 95 94 94 96 0 c74 0 100 4 109 15 24
28 -5 45 -78 45 l-66 0 72 73 c73 73 86 100 55 111 -13 5 -60 -36 -188 -164
-93 -93 -174 -170 -178 -170 -4 0 -7 22 -7 49 l0 49 120 121 c118 119 140 154
104 168 -9 3 -27 -6 -45 -23 l-29 -28 0 61 c0 47 -4 62 -16 67 -33 13 -44 -13
-44 -102 l0 -86 -42 -43 -43 -44 -12 93 c-6 51 -12 114 -12 140 -1 26 -5 58
-11 72 -11 29 -37 34 -47 9z"/>
<path d="M316 898 c-3 -17 -11 -98 -16 -178 -5 -80 -14 -192 -20 -250 -5 -58
-13 -140 -16 -182 l-6 -78 -44 0 c-48 0 -66 -18 -44 -45 11 -13 124 -15 904
-13 l891 3 3 28 c3 26 2 27 -42 27 -34 0 -46 4 -50 18 -4 10 -13 92 -21 182
-18 201 -36 384 -38 387 -1 1 -15 5 -31 9 l-28 7 6 -74 c4 -41 11 -105 16
-144 8 -63 24 -262 22 -275 -1 -3 -9 -7 -18 -8 -10 -3 -45 24 -90 69 -61 61
-77 72 -91 63 -27 -17 -26 -30 8 -63 l31 -31 -31 -32 c-35 -36 -37 -41 -16
-58 15 -12 20 -10 81 35 9 6 21 1 39 -17 17 -17 40 -28 63 -30 26 -2 38 -8 40
-21 3 -16 -15 -17 -310 -15 l-313 3 0 48 c0 35 -4 47 -15 47 -28 0 -38 -15
-42 -55 l-3 -40 -67 -3 c-67 -3 -68 -3 -68 23 0 15 -6 25 -14 25 -28 0 -46
-12 -46 -31 0 -18 -13 -19 -310 -19 -241 0 -310 3 -310 13 1 70 39 507 45 515
1 1 35 -29 74 -68 75 -74 95 -83 106 -49 5 15 -1 29 -21 50 l-28 29 28 29 c20
21 26 35 21 50 -9 28 -28 27 -56 -4 -30 -31 -40 -31 -69 0 -13 14 -32 25 -43
25 -15 0 -18 5 -13 28 3 15 7 43 8 62 3 31 0 35 -23 38 -23 3 -27 -2 -33 -30z"/>
<path d="M613 693 c-8 -2 -13 -22 -13 -45 0 -22 3 -38 8 -36 91 42 142 71 137
78 -6 10 -110 13 -132 3z"/>
<path d="M952 688 c-22 -22 -14 -55 15 -63 17 -4 29 -2 31 4 2 6 31 11 68 11
60 0 65 -2 74 -25 6 -17 17 -25 33 -25 22 0 23 4 21 45 -1 24 -5 49 -9 55 -9
15 -218 13 -233 -2z"/>
<path d="M1393 693 c-12 -4 -19 -83 -9 -83 18 0 145 73 141 81 -6 9 -110 11
-132 2z"/>
<path d="M660 600 c-63 -32 -116 -62 -117 -67 -1 -4 4 -16 11 -26 13 -17 21
-15 133 39 65 31 120 58 122 60 7 6 -18 54 -26 53 -5 0 -60 -27 -123 -59z"/>
<path d="M1438 598 c-65 -33 -118 -63 -118 -66 0 -4 7 -16 15 -26 14 -18 19
-16 132 39 65 32 120 59 122 61 7 6 -18 54 -26 53 -5 -1 -61 -28 -125 -61z"/>
<path d="M860 572 c0 -28 2 -29 83 -40 79 -12 212 -34 288 -48 32 -5 37 -4 42
17 10 36 10 36 -30 42 -52 8 -205 34 -278 46 -95 17 -105 15 -105 -17z"/>
<path d="M682 505 c-97 -49 -98 -55 -9 -55 l77 0 0 45 c0 25 -1 44 -2 44 -2
-1 -31 -16 -66 -34z"/>
<path d="M1460 503 c-36 -19 -66 -38 -68 -43 -2 -6 26 -10 67 -10 l71 0 0 45
c0 25 -1 44 -2 44 -2 -1 -32 -17 -68 -36z"/>
<path d="M946 493 c-3 -4 -6 -28 -6 -55 0 -48 1 -49 28 -46 25 3 27 6 27 47 0
36 -4 45 -22 52 -11 4 -24 5 -27 2z"/>
<path d="M1130 450 c0 -5 11 -10 25 -10 14 0 25 5 25 10 0 6 -11 10 -25 10
-14 0 -25 -4 -25 -10z"/>
<path d="M1085 386 c-66 -18 -142 -37 -168 -44 -44 -12 -48 -15 -45 -40 4 -33
-16 -35 218 23 36 9 89 21 118 27 48 10 52 14 52 40 0 24 -4 28 -27 27 -16 -1
-82 -16 -148 -33z"/>
<path d="M374 306 c-3 -8 -4 -25 -2 -38 l3 -23 235 0 235 0 0 35 0 35 -233 3
c-195 2 -233 0 -238 -12z"/>
<path d="M1254 306 c-3 -8 -4 -25 -2 -38 3 -23 4 -23 153 -23 l150 0 0 35 0
35 -148 3 c-122 2 -148 0 -153 -12z"/>
</g>
</svg>
