<?xml version="1.0" standalone="no"?>
<!DOCTYPE svg PUBLIC "-//W3C//DTD SVG 20010904//EN"
 "http://www.w3.org/TR/2001/REC-SVG-20010904/DTD/svg10.dtd">
<svg version="1.0" xmlns="http://www.w3.org/2000/svg"
 width="256.000000pt" height="512.000000pt" viewBox="0 0 512.000000 512.000000"
 preserveAspectRatio="xMidYMid meet">

<g transform="translate(0.000000,256.000000) scale(0.100000,-0.100000)"
fill="#777777" stroke="none">
<path d="M1309 4220 c-48 -25 -86 -71 -99 -119 -6 -25 -9 -174 -8 -403 l3
-363 203 248 c116 140 215 252 229 258 33 12 1813 12 1846 0 14 -6 114 -118
228 -258 l204 -247 3 363 c1 228 -2 377 -8 402 -13 49 -52 94 -101 119 -37 20
-67 20 -1251 20 -1176 -1 -1214 -1 -1249 -20z"/>
<path d="M1700 3655 c-17 -18 -25 -40 -28 -80 l-4 -55 892 0 892 0 -4 55 c-3
40 -11 62 -28 80 l-23 25 -837 0 -837 0 -23 -25z"/>
<path d="M1464 3346 c-31 -31 -34 -39 -34 -95 l0 -61 1130 0 1130 0 0 61 c0
56 -3 64 -34 95 l-34 34 -1062 0 -1062 0 -34 -34z"/>
<path d="M925 2996 c-37 -16 -70 -52 -84 -89 -8 -19 -11 -327 -11 -969 0 -939
0 -940 21 -978 12 -21 38 -47 59 -59 l38 -21 1612 0 1612 0 38 21 c21 12 47
38 59 59 l21 38 -2 955 c-3 947 -3 956 -24 983 -11 15 -33 37 -48 48 -27 21
-29 21 -1644 23 -1333 2 -1622 0 -1647 -11z m2045 -806 l0 -240 -410 0 -410 0
0 240 0 240 410 0 410 0 0 -240z m-1045 -625 c18 -18 25 -35 25 -65 l0 -40
610 0 610 0 0 40 c0 55 34 90 88 90 51 0 75 -26 112 -124 38 -99 38 -129 1
-167 l-29 -29 -782 0 -782 0 -29 29 c-19 20 -29 40 -29 60 0 40 54 178 81 208
31 32 91 32 124 -2z"/>
</g>
</svg>
