<?xml version="1.0" standalone="no"?>
<!DOCTYPE svg PUBLIC "-//W3C//DTD SVG 20010904//EN"
 "http://www.w3.org/TR/2001/REC-SVG-20010904/DTD/svg10.dtd">
<svg version="1.0" xmlns="http://www.w3.org/2000/svg"
 width="512.000000pt" height="512.000000pt" viewBox="0 0 512.000000 512.000000"
 preserveAspectRatio="xMidYMid meet" >

<g transform="translate(0.000000,512.000000) scale(0.100000,-0.100000)"
fill="#777777" stroke="none">
<path d="M2011 4760 c-584 -57 -1102 -386 -1403 -892 -147 -248 -228 -510
-247 -804 -34 -502 133 -980 471 -1353 32 -36 57 -68 56 -72 -2 -4 -91 -83
-198 -175 -107 -92 -198 -172 -203 -178 -14 -21 -2 -60 23 -73 14 -7 58 -13
98 -13 l72 0 0 -425 0 -425 235 0 235 0 1 53 c1 28 1 169 1 311 0 143 4 270 9
283 l9 23 239 0 c227 0 241 -1 251 -19 6 -13 10 -137 10 -335 l0 -316 240 0
240 0 0 380 c0 209 1 380 3 380 296 18 425 39 608 100 187 62 367 159 543 293
l78 60 86 -86 86 -86 -52 -55 c-32 -34 -52 -64 -52 -78 0 -17 105 -128 413
-434 460 -459 447 -449 582 -449 94 1 160 31 225 102 80 88 101 204 59 320
-20 54 -49 86 -427 466 -465 466 -432 443 -517 357 l-49 -50 -87 86 -88 87 58
76 c231 304 356 630 380 994 15 232 -13 474 -78 679 l-29 88 94 0 c82 0 95 -2
104 -19 6 -13 10 -137 10 -335 l0 -316 240 0 240 0 0 425 0 425 79 0 c89 0
111 12 111 58 0 24 -63 81 -441 407 -242 209 -452 388 -465 398 l-24 19 -211
-182 -211 -181 -46 43 c-166 153 -440 302 -687 374 -195 56 -474 83 -674 64z
m369 -264 c353 -47 662 -200 910 -449 572 -574 613 -1485 94 -2108 -410 -493
-1082 -684 -1699 -484 -119 38 -328 146 -427 219 -233 174 -429 418 -518 643
-107 273 -124 356 -124 618 0 170 3 216 23 305 69 321 212 589 433 810 343
343 831 509 1308 446z"/>
<path d="M1695 3714 c-724 -624 -665 -571 -665 -603 0 -49 24 -60 140 -63
l105 -3 3 -527 2 -528 295 0 295 0 0 399 c0 350 2 402 16 415 13 14 54 16 294
16 240 0 281 -2 294 -16 14 -13 16 -65 16 -415 l0 -399 298 0 297 0 -2 452
c-1 249 0 488 4 531 l5 77 102 0 c89 0 105 3 120 19 39 43 22 66 -164 227
l-175 152 -5 209 -5 208 -142 3 -143 3 0 -81 c0 -44 -2 -80 -5 -80 -3 0 -113
92 -244 205 -132 113 -245 205 -253 205 -7 -1 -224 -183 -483 -406z"/>
</g>
</svg>
